<svg width="120" height="119" viewBox="0 0 120 119" fill="none" xmlns="http://www.w3.org/2000/svg">
<g clip-path="url(#clip0_3_2)">
<path d="M39.7775 44.8884C40.5923 36.1646 46.2642 30.2721 53.4991 28.1288C61.3078 25.8137 70.7061 27.8922 77.5502 34.6306C77.9018 34.9755 78.2398 35.3288 78.5642 35.6906C75.1279 36.4309 72.0106 38.2439 69.6671 40.8651C63.7667 40.3861 58.4233 42.9844 54.9538 47.3744C50.6099 52.8769 49.4341 60.7736 52.4493 67.943C56.313 77.1206 66.096 81.4798 77.3171 83.3992L79.1904 83.6971C78.2442 84.3745 77.1453 84.8394 76.0597 85.2269C75.5015 85.4254 74.9388 85.6106 74.3719 85.7823L72.3865 86.3567C54.7181 91.4333 40.5727 91.0678 31.623 83.0173C24.4798 76.5926 21.8667 67.3663 23.7489 59.4709C25.4927 52.1574 31.0783 46.1884 39.7775 44.8884ZM59.278 65.0478C55.2475 55.4719 62.7942 44.8843 72.6502 49.164C72.7433 49.2029 72.8484 49.2035 72.9425 49.1657C73.0367 49.128 73.1124 49.0549 73.1533 48.9623C77.415 39.0668 90.1315 41.59 93.7248 51.34C95.8113 56.9938 93.6753 64.0666 87.3168 72.5582L86.2705 73.9364L85.648 74.786C85.1025 75.5061 84.4813 76.1951 83.7226 76.498C82.9671 76.799 82.0431 76.7201 81.1566 76.5748L79.6376 76.3007C68.493 74.5646 61.7065 70.8136 59.278 65.0478Z" fill="#D64848"/>
</g>
<defs>
<clipPath id="clip0_3_2">
<rect width="89.0193" height="88.2597" fill="white" transform="translate(0.862366 39.3318) rotate(-26.1557)"/>
</clipPath>
</defs>
</svg>
