<svg width="304" height="552" viewBox="0 0 304 552" fill="none" xmlns="http://www.w3.org/2000/svg">
<path d="M302.621 400.78C302.367 484.174 234.557 551.573 151.162 551.319V551.319C67.7674 551.065 0.368608 483.254 0.622583 399.86L1.22254 202.861L303.221 203.78L302.621 400.78Z" fill="#FEC0C6"/>
<path d="M302.255 192.777L2.25603 191.864L2.45094 127.864C2.60568 77.0542 43.9207 35.99 94.7307 36.1447L210.73 36.498C261.54 36.6528 302.604 77.9678 302.45 128.778L302.255 192.777Z" stroke="#D9D9D9" stroke-width="2"/>
<path d="M127.507 86.0644C127.501 87.9678 127.135 89.586 126.41 90.919C125.69 92.2521 124.709 93.269 123.468 93.9697C122.233 94.6648 120.846 95.0101 119.306 95.0054C117.755 95.0006 116.364 94.6441 115.133 93.9358C113.902 93.2275 112.931 92.2047 112.219 90.8673C111.507 89.5299 111.154 87.9123 111.16 86.0146C111.166 84.1112 111.529 82.493 112.249 81.1599C112.969 79.8269 113.946 78.8128 115.181 78.1177C116.417 77.4169 117.81 77.0689 119.361 77.0736C120.901 77.0783 122.286 77.4348 123.517 78.1431C124.753 78.8457 125.727 79.8658 126.439 81.2032C127.157 82.5406 127.513 84.161 127.507 86.0644ZM123.765 86.053C123.769 84.82 123.588 83.7797 123.221 82.932C122.86 82.0843 122.347 81.4407 121.684 81.0012C121.021 80.5617 120.243 80.3405 119.351 80.3378C118.459 80.3351 117.68 80.5515 117.014 80.987C116.348 81.4224 115.829 82.0629 115.457 82.9084C115.09 83.7538 114.905 84.793 114.902 86.026C114.898 87.2589 115.077 88.2993 115.438 89.147C115.804 89.9947 116.319 90.6383 116.983 91.0778C117.646 91.5173 118.424 91.7385 119.316 91.7412C120.208 91.7439 120.987 91.5275 121.653 91.092C122.319 90.6566 122.836 90.0161 123.202 89.1706C123.574 88.3251 123.762 87.2859 123.765 86.053ZM136.401 94.8188L130.214 94.7999L130.267 77.3455L136.506 77.3645C138.261 77.3698 139.772 77.7239 141.036 78.4266C142.301 79.1236 143.273 80.1237 143.951 81.4269C144.634 82.7302 144.973 84.288 144.968 86.1005C144.962 87.9187 144.614 89.4801 143.922 90.7849C143.236 92.0896 142.253 93.0894 140.973 93.7844C139.698 94.4794 138.174 94.8242 136.401 94.8188ZM133.914 91.6493L136.257 91.6564C137.348 91.6597 138.267 91.4693 139.012 91.0852C139.763 90.6955 140.328 90.0921 140.705 89.275C141.088 88.4523 141.282 87.3904 141.286 86.0893C141.29 84.7995 141.103 83.745 140.724 82.9256C140.352 82.1063 139.794 81.5024 139.051 81.1137C138.308 80.7251 137.391 80.5291 136.3 80.5258L133.948 80.5186L133.914 91.6493ZM145.65 77.3923L149.784 77.4049L153.741 84.934L153.912 84.9346L157.915 77.4297L162.048 77.4423L155.647 88.7069L155.628 94.8773L151.964 94.8662L151.982 88.6958L145.65 77.3923ZM178.391 83.6029L174.658 83.5915C174.591 83.1083 174.453 82.6789 174.244 82.3033C174.035 81.922 173.766 81.5973 173.438 81.3292C173.109 81.0612 172.729 80.8555 172.297 80.7121C171.872 80.5688 171.409 80.4964 170.909 80.4948C170.005 80.4921 169.218 80.7141 168.546 81.1609C167.874 81.6021 167.352 82.2482 166.98 83.0994C166.609 83.9448 166.421 84.9727 166.417 86.1829C166.413 87.4272 166.595 88.4732 166.961 89.3209C167.334 90.1687 167.855 90.8094 168.524 91.2433C169.193 91.6772 169.968 91.8954 170.849 91.8981C171.343 91.8996 171.8 91.8357 172.221 91.7063C172.648 91.5769 173.026 91.3877 173.357 91.1387C173.687 90.884 173.961 90.5752 174.178 90.2122C174.4 89.8493 174.555 89.435 174.642 88.9693L178.374 88.9977C178.275 89.7986 178.032 90.5706 177.643 91.3137C177.26 92.0512 176.744 92.7115 176.094 93.2948C175.451 93.8724 174.682 94.3303 173.789 94.6684C172.902 95.001 171.898 95.1655 170.779 95.1621C169.222 95.1574 167.831 94.8009 166.606 94.0926C165.387 93.3843 164.424 92.3615 163.718 91.0241C163.017 89.6868 162.67 88.0692 162.676 86.1715C162.681 84.2681 163.044 82.6499 163.764 81.3168C164.484 79.9838 165.459 78.9697 166.688 78.2746C167.918 77.5738 169.299 77.2257 170.834 77.2304C171.845 77.2335 172.782 77.3784 173.645 77.6651C174.513 77.9518 175.282 78.3689 175.951 78.9164C176.619 79.4582 177.163 80.1218 177.581 80.9072C178.005 81.6926 178.275 82.5911 178.391 83.6029ZM181.003 94.9546L181.056 77.5002L192.817 77.536L192.808 80.5786L184.737 80.554L184.724 84.7131L192.19 84.7358L192.181 87.7784L184.715 87.7557L184.702 91.9233L192.807 91.9479L192.798 94.9905L181.003 94.9546Z" fill="black"/>
<path d="M108.209 132.803C108.143 132.227 107.868 131.779 107.384 131.459C106.9 131.14 106.306 130.979 105.601 130.977C105.086 130.975 104.635 131.057 104.248 131.222C103.865 131.388 103.565 131.616 103.348 131.907C103.135 132.198 103.028 132.529 103.027 132.901C103.026 133.211 103.099 133.478 103.246 133.702C103.397 133.923 103.59 134.107 103.824 134.255C104.058 134.4 104.304 134.52 104.562 134.615C104.819 134.707 105.055 134.782 105.271 134.839L106.452 135.161C106.755 135.241 107.091 135.352 107.462 135.494C107.837 135.635 108.194 135.827 108.534 136.071C108.878 136.31 109.162 136.618 109.384 136.994C109.606 137.369 109.717 137.83 109.715 138.376C109.713 139.004 109.546 139.572 109.215 140.079C108.888 140.585 108.41 140.987 107.78 141.284C107.154 141.582 106.394 141.729 105.5 141.726C104.667 141.724 103.946 141.587 103.337 141.316C102.731 141.046 102.255 140.669 101.908 140.187C101.565 139.705 101.372 139.146 101.328 138.509L102.783 138.513C102.819 138.953 102.966 139.317 103.222 139.606C103.483 139.891 103.812 140.104 104.209 140.245C104.61 140.383 105.042 140.452 105.504 140.454C106.042 140.455 106.525 140.37 106.954 140.197C107.382 140.02 107.722 139.775 107.973 139.461C108.224 139.144 108.35 138.773 108.351 138.349C108.352 137.962 108.245 137.648 108.03 137.404C107.815 137.161 107.532 136.964 107.18 136.811C106.828 136.658 106.448 136.525 106.039 136.41L104.608 135.996C103.7 135.732 102.982 135.357 102.453 134.87C101.924 134.384 101.661 133.749 101.663 132.965C101.665 132.313 101.843 131.745 102.197 131.262C102.554 130.774 103.033 130.397 103.632 130.13C104.235 129.859 104.908 129.724 105.65 129.727C106.4 129.729 107.067 129.866 107.649 130.136C108.232 130.403 108.693 130.768 109.032 131.231C109.375 131.695 109.556 132.22 109.573 132.807L108.209 132.803ZM115.385 141.734C114.567 141.731 113.863 141.536 113.273 141.148C112.683 140.76 112.231 140.226 111.914 139.547C111.598 138.868 111.442 138.093 111.444 137.222C111.447 136.335 111.612 135.554 111.94 134.877C112.272 134.196 112.732 133.665 113.32 133.284C113.912 132.9 114.602 132.709 115.39 132.711C116.003 132.713 116.556 132.828 117.048 133.057C117.54 133.286 117.942 133.605 118.255 134.015C118.568 134.425 118.762 134.903 118.836 135.449L117.495 135.445C117.394 135.047 117.168 134.694 116.817 134.386C116.469 134.074 116 133.917 115.409 133.916C114.886 133.914 114.427 134.049 114.033 134.32C113.642 134.588 113.336 134.968 113.114 135.46C112.897 135.948 112.787 136.521 112.785 137.18C112.783 137.855 112.888 138.442 113.098 138.943C113.312 139.443 113.614 139.832 114.004 140.11C114.397 140.388 114.858 140.528 115.389 140.529C115.737 140.53 116.054 140.471 116.338 140.35C116.623 140.23 116.864 140.056 117.061 139.83C117.259 139.603 117.4 139.331 117.484 139.013L118.825 139.017C118.748 139.532 118.559 139.995 118.258 140.407C117.962 140.815 117.569 141.14 117.079 141.381C116.594 141.618 116.029 141.736 115.385 141.734ZM123.345 141.781C122.792 141.779 122.291 141.673 121.84 141.464C121.39 141.25 121.033 140.944 120.769 140.546C120.505 140.143 120.374 139.658 120.376 139.09C120.378 138.59 120.477 138.185 120.675 137.875C120.873 137.561 121.137 137.316 121.467 137.139C121.797 136.962 122.161 136.83 122.559 136.744C122.961 136.654 123.365 136.584 123.77 136.532C124.301 136.465 124.731 136.416 125.061 136.382C125.394 136.346 125.637 136.284 125.788 136.197C125.944 136.111 126.022 135.959 126.023 135.743L126.023 135.698C126.025 135.137 125.872 134.701 125.567 134.39C125.264 134.078 124.805 133.921 124.187 133.92C123.547 133.918 123.045 134.056 122.68 134.335C122.316 134.615 122.059 134.913 121.911 135.231L120.639 134.772C120.868 134.243 121.172 133.831 121.552 133.537C121.936 133.238 122.353 133.031 122.804 132.915C123.259 132.796 123.706 132.736 124.145 132.738C124.426 132.738 124.748 132.774 125.111 132.843C125.478 132.908 125.832 133.044 126.172 133.249C126.516 133.455 126.801 133.765 127.027 134.178C127.253 134.592 127.365 135.145 127.363 135.838L127.346 141.588L126.005 141.584L126.008 140.402L125.94 140.402C125.849 140.591 125.697 140.794 125.484 141.009C125.271 141.224 124.988 141.407 124.636 141.557C124.283 141.708 123.853 141.782 123.345 141.781ZM123.553 140.577C124.084 140.578 124.531 140.476 124.895 140.268C125.263 140.061 125.541 139.793 125.727 139.464C125.918 139.135 126.013 138.789 126.015 138.425L126.018 137.198C125.961 137.266 125.836 137.328 125.643 137.384C125.453 137.437 125.233 137.483 124.983 137.524C124.737 137.561 124.496 137.595 124.261 137.624C124.03 137.65 123.843 137.672 123.699 137.691C123.35 137.735 123.024 137.808 122.721 137.909C122.421 138.007 122.178 138.156 121.992 138.356C121.81 138.552 121.718 138.821 121.717 139.162C121.715 139.628 121.887 139.981 122.231 140.22C122.578 140.456 123.019 140.575 123.553 140.577ZM129.793 141.596L129.82 132.869L131.115 132.872L131.111 134.191L131.202 134.191C131.363 133.76 131.652 133.41 132.069 133.142C132.486 132.875 132.957 132.742 133.479 132.743C133.578 132.744 133.701 132.746 133.849 132.75C133.996 132.754 134.108 132.76 134.184 132.768L134.18 134.132C134.134 134.12 134.03 134.103 133.867 134.08C133.708 134.053 133.54 134.039 133.362 134.038C132.937 134.037 132.558 134.125 132.225 134.302C131.894 134.475 131.632 134.717 131.438 135.027C131.248 135.333 131.152 135.683 131.151 136.077L131.134 141.6L129.793 141.596ZM140.428 141.628L140.464 129.992L144.395 130.004C145.308 130.007 146.054 130.174 146.632 130.505C147.215 130.832 147.645 131.275 147.924 131.833C148.203 132.39 148.341 133.012 148.339 133.698C148.337 134.383 148.195 135.006 147.913 135.566C147.634 136.125 147.205 136.571 146.624 136.903C146.044 137.23 145.301 137.393 144.396 137.39L141.577 137.382L141.581 136.132L144.354 136.14C144.979 136.142 145.481 136.036 145.861 135.821C146.24 135.606 146.516 135.315 146.687 134.948C146.863 134.578 146.951 134.159 146.952 133.693C146.954 133.228 146.868 132.811 146.695 132.443C146.525 132.075 146.25 131.786 145.868 131.576C145.486 131.363 144.979 131.256 144.346 131.254L141.869 131.246L141.837 141.632L140.428 141.628ZM153.967 141.851C153.126 141.849 152.402 141.661 151.793 141.288C151.188 140.911 150.722 140.387 150.394 139.715C150.071 139.04 149.91 138.255 149.913 137.362C149.915 136.468 150.081 135.68 150.409 134.999C150.74 134.315 151.2 133.782 151.788 133.401C152.381 133.017 153.071 132.826 153.858 132.828C154.313 132.829 154.762 132.907 155.204 133.059C155.647 133.212 156.05 133.46 156.412 133.802C156.775 134.14 157.063 134.588 157.277 135.145C157.492 135.703 157.598 136.389 157.595 137.203L157.593 137.771L150.866 137.751L150.87 136.592L156.233 136.608C156.235 136.116 156.138 135.676 155.942 135.289C155.75 134.902 155.474 134.596 155.115 134.372C154.76 134.147 154.34 134.034 153.855 134.033C153.321 134.031 152.858 134.162 152.467 134.426C152.08 134.686 151.782 135.026 151.572 135.446C151.362 135.866 151.257 136.316 151.255 136.797L151.253 137.57C151.251 138.229 151.363 138.788 151.589 139.247C151.819 139.703 152.138 140.05 152.546 140.29C152.954 140.526 153.429 140.645 153.971 140.647C154.323 140.648 154.642 140.599 154.926 140.502C155.214 140.4 155.463 140.25 155.672 140.05C155.881 139.846 156.042 139.592 156.157 139.29L157.451 139.657C157.314 140.096 157.083 140.482 156.76 140.814C156.437 141.143 156.039 141.399 155.565 141.583C155.091 141.764 154.558 141.853 153.967 141.851ZM159.621 141.687L159.648 132.959L160.943 132.963L160.939 134.281L161.03 134.282C161.191 133.85 161.479 133.501 161.897 133.233C162.314 132.966 162.785 132.833 163.307 132.834C163.406 132.834 163.529 132.837 163.677 132.841C163.824 132.845 163.936 132.851 164.012 132.859L164.008 134.223C163.962 134.211 163.858 134.194 163.695 134.171C163.536 134.144 163.368 134.13 163.19 134.129C162.765 134.128 162.386 134.216 162.053 134.393C161.722 134.566 161.46 134.808 161.266 135.118C161.076 135.424 160.98 135.774 160.979 136.168L160.962 141.691L159.621 141.687ZM170.034 132.991L170.031 134.127L165.326 134.113L165.33 132.977L170.034 132.991ZM166.712 141.708L166.742 131.776C166.744 131.276 166.863 130.86 167.098 130.528C167.334 130.195 167.64 129.946 168.015 129.78C168.391 129.615 168.787 129.533 169.204 129.534C169.533 129.535 169.802 129.562 170.01 129.616C170.218 129.67 170.374 129.719 170.476 129.765L170.086 130.923C170.018 130.9 169.923 130.871 169.802 130.837C169.685 130.802 169.529 130.785 169.336 130.784C168.893 130.783 168.573 130.894 168.375 131.117C168.181 131.34 168.084 131.667 168.082 132.099L168.053 141.712L166.712 141.708ZM177.398 138.173L177.413 133.013L178.754 133.018L178.728 141.745L177.387 141.741L177.391 140.263L177.3 140.263C177.094 140.706 176.775 141.082 176.342 141.391C175.91 141.696 175.364 141.848 174.705 141.846C174.159 141.845 173.675 141.724 173.251 141.484C172.828 141.24 172.495 140.875 172.254 140.39C172.014 139.9 171.894 139.285 171.896 138.542L171.913 132.997L173.254 133.001L173.238 138.455C173.236 139.092 173.412 139.6 173.767 139.98C174.126 140.36 174.584 140.55 175.14 140.552C175.474 140.553 175.813 140.469 176.158 140.299C176.507 140.13 176.8 139.87 177.036 139.518C177.275 139.166 177.396 138.718 177.398 138.173ZM181.184 141.752L181.21 133.025L182.506 133.029L182.501 134.393L182.615 134.393C182.798 133.928 183.093 133.567 183.499 133.31C183.905 133.05 184.392 132.921 184.961 132.923C185.536 132.925 186.015 133.057 186.397 133.319C186.782 133.578 187.082 133.941 187.297 134.407L187.388 134.407C187.613 133.957 187.949 133.6 188.397 133.337C188.845 133.069 189.381 132.936 190.006 132.938C190.786 132.941 191.424 133.187 191.918 133.677C192.413 134.163 192.659 134.92 192.656 135.946L192.638 141.787L191.297 141.783L191.315 135.942C191.317 135.298 191.142 134.837 190.791 134.56C190.439 134.282 190.025 134.143 189.548 134.141C188.934 134.139 188.458 134.324 188.12 134.694C187.782 135.06 187.612 135.526 187.61 136.09L187.593 141.772L186.229 141.768L186.247 135.79C186.249 135.294 186.089 134.894 185.768 134.59C185.447 134.282 185.033 134.128 184.525 134.126C184.177 134.125 183.851 134.217 183.547 134.401C183.247 134.586 183.004 134.843 182.817 135.172C182.634 135.497 182.542 135.874 182.541 136.302L182.525 141.756L181.184 141.752ZM198.748 141.988C197.907 141.985 197.183 141.797 196.574 141.424C195.969 141.047 195.503 140.523 195.175 139.852C194.852 139.176 194.691 138.392 194.694 137.498C194.697 136.604 194.862 135.817 195.19 135.136C195.521 134.451 195.981 133.919 196.57 133.538C197.162 133.153 197.852 132.962 198.639 132.964C199.094 132.966 199.543 133.043 199.985 133.196C200.428 133.349 200.831 133.596 201.193 133.938C201.556 134.276 201.844 134.724 202.059 135.282C202.273 135.839 202.379 136.525 202.376 137.34L202.374 137.908L195.647 137.887L195.651 136.728L201.014 136.744C201.016 136.252 200.919 135.812 200.723 135.425C200.531 135.038 200.255 134.733 199.896 134.508C199.541 134.284 199.121 134.17 198.636 134.169C198.102 134.167 197.639 134.299 197.248 134.563C196.861 134.823 196.563 135.163 196.353 135.583C196.143 136.002 196.038 136.453 196.036 136.934L196.034 137.707C196.032 138.366 196.144 138.925 196.37 139.384C196.6 139.839 196.919 140.187 197.327 140.426C197.735 140.663 198.21 140.781 198.752 140.783C199.104 140.784 199.423 140.736 199.707 140.638C199.995 140.537 200.244 140.386 200.453 140.186C200.662 139.982 200.823 139.729 200.938 139.426L202.232 139.794C202.095 140.233 201.864 140.618 201.541 140.951C201.218 141.279 200.82 141.536 200.346 141.72C199.872 141.9 199.339 141.989 198.748 141.988Z" fill="black"/>
<rect width="33.9682" height="33.9682" transform="matrix(0.999973 0.00737529 0.00737529 -0.999973 135.677 35.1224)" fill="#0A0A0A"/>
<path d="M142.878 18.1909L162.693 18.3371M162.693 18.3371L154.263 9.78263M162.693 18.3371L154.138 26.7663" stroke="white" stroke-width="2.83069" stroke-linecap="round" stroke-linejoin="round"/>
</svg>
