<svg width="302" height="534" viewBox="0 0 302 534" fill="none" xmlns="http://www.w3.org/2000/svg">
<path d="M0 151C0 67.605 67.605 0 151 0V0C234.395 0 302 67.605 302 151V348H0V151Z" fill="#FDE287"/>
<path d="M1 359H301V423C301 473.81 259.81 515 209 515H93C42.1898 515 1 473.81 1 423V359Z" stroke="#D9D9D9" stroke-width="2"/>
<path d="M126.557 415.476C126.557 417.379 126.196 418.999 125.474 420.334C124.759 421.669 123.781 422.689 122.543 423.393C121.31 424.092 119.923 424.442 118.384 424.442C116.832 424.442 115.44 424.089 114.207 423.385C112.974 422.68 112 421.661 111.284 420.325C110.568 418.99 110.21 417.374 110.21 415.476C110.21 413.572 110.568 411.953 111.284 410.618C112 409.283 112.974 408.266 114.207 407.567C115.44 406.862 116.832 406.51 118.384 406.51C119.923 406.51 121.31 406.862 122.543 407.567C123.781 408.266 124.759 409.283 125.474 410.618C126.196 411.953 126.557 413.572 126.557 415.476ZM122.815 415.476C122.815 414.243 122.631 413.203 122.261 412.357C121.898 411.51 121.384 410.868 120.719 410.43C120.054 409.993 119.276 409.774 118.384 409.774C117.491 409.774 116.713 409.993 116.048 410.43C115.384 410.868 114.866 411.51 114.497 412.357C114.134 413.203 113.952 414.243 113.952 415.476C113.952 416.709 114.134 417.749 114.497 418.595C114.866 419.442 115.384 420.084 116.048 420.521C116.713 420.959 117.491 421.178 118.384 421.178C119.276 421.178 120.054 420.959 120.719 420.521C121.384 420.084 121.898 419.442 122.261 418.595C122.631 417.749 122.815 416.709 122.815 415.476ZM135.478 424.203H129.29V406.749H135.529C137.285 406.749 138.796 407.098 140.063 407.797C141.33 408.49 142.305 409.487 142.987 410.788C143.674 412.089 144.018 413.646 144.018 415.459C144.018 417.277 143.674 418.839 142.987 420.146C142.305 421.453 141.325 422.456 140.046 423.155C138.773 423.854 137.251 424.203 135.478 424.203ZM132.981 421.041H135.325C136.415 421.041 137.333 420.848 138.077 420.462C138.827 420.07 139.39 419.464 139.765 418.646C140.146 417.822 140.336 416.76 140.336 415.459C140.336 414.169 140.146 413.115 139.765 412.297C139.39 411.479 138.83 410.876 138.086 410.49C137.342 410.104 136.424 409.911 135.333 409.911H132.981V421.041ZM144.674 406.749H148.808L152.788 414.266H152.958L156.938 406.749H161.072L154.705 418.033V424.203H151.04V418.033L144.674 406.749ZM177.433 412.859H173.7C173.632 412.376 173.493 411.947 173.283 411.572C173.072 411.192 172.803 410.868 172.473 410.601C172.143 410.334 171.763 410.129 171.331 409.987C170.905 409.845 170.442 409.774 169.942 409.774C169.038 409.774 168.251 409.999 167.581 410.447C166.911 410.891 166.391 411.538 166.021 412.391C165.652 413.237 165.467 414.266 165.467 415.476C165.467 416.72 165.652 417.766 166.021 418.612C166.396 419.459 166.919 420.098 167.589 420.53C168.26 420.962 169.036 421.178 169.916 421.178C170.411 421.178 170.868 421.112 171.288 420.982C171.714 420.851 172.092 420.661 172.422 420.411C172.751 420.155 173.024 419.845 173.24 419.482C173.462 419.118 173.615 418.703 173.7 418.237L177.433 418.254C177.337 419.055 177.095 419.828 176.709 420.572C176.328 421.311 175.814 421.973 175.166 422.558C174.524 423.138 173.757 423.598 172.865 423.939C171.979 424.274 170.976 424.442 169.857 424.442C168.3 424.442 166.908 424.089 165.68 423.385C164.459 422.68 163.493 421.661 162.783 420.325C162.078 418.99 161.726 417.374 161.726 415.476C161.726 413.572 162.084 411.953 162.8 410.618C163.516 409.283 164.487 408.266 165.714 407.567C166.942 406.862 168.322 406.51 169.857 406.51C170.868 406.51 171.805 406.652 172.669 406.936C173.538 407.22 174.308 407.635 174.979 408.18C175.649 408.72 176.195 409.382 176.615 410.166C177.041 410.95 177.314 411.848 177.433 412.859ZM180.08 424.203V406.749H191.841V409.791H183.77V413.95H191.236V416.993H183.77V421.161H191.875V424.203H180.08Z" fill="black"/>
<path d="M107.773 461.788C107.705 461.213 107.428 460.766 106.943 460.447C106.458 460.129 105.864 459.97 105.159 459.97C104.644 459.97 104.193 460.054 103.807 460.22C103.424 460.387 103.125 460.616 102.909 460.908C102.697 461.199 102.591 461.531 102.591 461.902C102.591 462.213 102.665 462.48 102.812 462.703C102.964 462.923 103.157 463.107 103.392 463.254C103.627 463.398 103.873 463.518 104.131 463.612C104.388 463.703 104.625 463.777 104.841 463.834L106.023 464.152C106.326 464.232 106.663 464.341 107.034 464.482C107.409 464.622 107.767 464.813 108.108 465.055C108.453 465.294 108.737 465.601 108.96 465.976C109.184 466.351 109.295 466.811 109.295 467.357C109.295 467.985 109.131 468.554 108.801 469.061C108.475 469.569 107.998 469.972 107.369 470.271C106.744 470.571 105.985 470.72 105.091 470.72C104.258 470.72 103.536 470.586 102.926 470.317C102.32 470.048 101.843 469.673 101.494 469.192C101.15 468.711 100.955 468.152 100.909 467.516H102.364C102.402 467.955 102.549 468.319 102.807 468.607C103.068 468.891 103.398 469.103 103.795 469.243C104.197 469.379 104.629 469.447 105.091 469.447C105.629 469.447 106.112 469.36 106.54 469.186C106.968 469.008 107.307 468.762 107.557 468.447C107.807 468.129 107.932 467.758 107.932 467.334C107.932 466.947 107.824 466.633 107.608 466.391C107.392 466.148 107.108 465.951 106.756 465.8C106.403 465.648 106.023 465.516 105.614 465.402L104.182 464.993C103.273 464.732 102.553 464.358 102.023 463.874C101.492 463.389 101.227 462.754 101.227 461.97C101.227 461.319 101.403 460.75 101.756 460.266C102.112 459.777 102.589 459.398 103.188 459.129C103.79 458.857 104.462 458.72 105.205 458.72C105.955 458.72 106.621 458.855 107.205 459.124C107.788 459.389 108.25 459.752 108.591 460.214C108.936 460.677 109.117 461.201 109.136 461.788H107.773ZM114.976 470.697C114.158 470.697 113.453 470.504 112.862 470.118C112.271 469.732 111.817 469.199 111.499 468.521C111.18 467.843 111.021 467.069 111.021 466.197C111.021 465.311 111.184 464.529 111.51 463.851C111.839 463.169 112.298 462.637 112.885 462.254C113.476 461.868 114.165 461.675 114.953 461.675C115.567 461.675 116.12 461.788 116.612 462.016C117.105 462.243 117.508 462.561 117.822 462.97C118.137 463.379 118.332 463.857 118.408 464.402H117.067C116.964 464.004 116.737 463.652 116.385 463.345C116.036 463.035 115.567 462.879 114.976 462.879C114.453 462.879 113.995 463.016 113.601 463.288C113.211 463.557 112.906 463.938 112.686 464.43C112.47 464.919 112.362 465.493 112.362 466.152C112.362 466.826 112.468 467.413 112.68 467.913C112.896 468.413 113.199 468.802 113.589 469.078C113.983 469.355 114.446 469.493 114.976 469.493C115.324 469.493 115.641 469.432 115.925 469.311C116.209 469.19 116.449 469.016 116.646 468.788C116.843 468.561 116.983 468.288 117.067 467.97H118.408C118.332 468.485 118.144 468.949 117.845 469.362C117.55 469.771 117.158 470.097 116.669 470.339C116.184 470.578 115.62 470.697 114.976 470.697ZM122.936 470.72C122.383 470.72 121.881 470.616 121.43 470.408C120.98 470.196 120.622 469.891 120.357 469.493C120.091 469.091 119.959 468.607 119.959 468.038C119.959 467.538 120.057 467.133 120.254 466.822C120.451 466.508 120.714 466.262 121.044 466.084C121.374 465.906 121.737 465.773 122.135 465.686C122.536 465.595 122.94 465.523 123.345 465.47C123.875 465.402 124.305 465.351 124.635 465.317C124.968 465.279 125.211 465.216 125.362 465.129C125.518 465.042 125.595 464.891 125.595 464.675V464.629C125.595 464.069 125.442 463.633 125.135 463.322C124.832 463.012 124.372 462.857 123.754 462.857C123.114 462.857 122.612 462.997 122.249 463.277C121.885 463.557 121.629 463.857 121.482 464.175L120.209 463.72C120.436 463.19 120.739 462.777 121.118 462.482C121.5 462.182 121.917 461.974 122.368 461.857C122.822 461.735 123.269 461.675 123.709 461.675C123.989 461.675 124.311 461.709 124.675 461.777C125.042 461.841 125.396 461.976 125.737 462.18C126.082 462.385 126.368 462.694 126.595 463.107C126.822 463.519 126.936 464.072 126.936 464.766V470.516H125.595V469.334H125.527C125.436 469.523 125.285 469.726 125.072 469.942C124.86 470.158 124.578 470.341 124.226 470.493C123.874 470.644 123.444 470.72 122.936 470.72ZM123.141 469.516C123.671 469.516 124.118 469.411 124.482 469.203C124.849 468.995 125.125 468.726 125.311 468.396C125.5 468.067 125.595 467.72 125.595 467.357V466.129C125.538 466.197 125.413 466.26 125.22 466.317C125.031 466.37 124.811 466.417 124.561 466.459C124.315 466.497 124.074 466.531 123.839 466.561C123.608 466.588 123.421 466.61 123.277 466.629C122.929 466.675 122.603 466.749 122.3 466.851C122 466.949 121.758 467.099 121.572 467.3C121.391 467.497 121.3 467.766 121.3 468.107C121.3 468.572 121.472 468.925 121.817 469.163C122.165 469.398 122.607 469.516 123.141 469.516ZM129.384 470.516V461.788H130.679V463.107H130.77C130.929 462.675 131.217 462.324 131.634 462.055C132.05 461.786 132.52 461.652 133.043 461.652C133.141 461.652 133.264 461.654 133.412 461.658C133.56 461.661 133.671 461.667 133.747 461.675V463.038C133.702 463.027 133.598 463.01 133.435 462.987C133.276 462.961 133.107 462.947 132.929 462.947C132.505 462.947 132.126 463.036 131.793 463.214C131.463 463.389 131.202 463.631 131.009 463.942C130.819 464.249 130.724 464.599 130.724 464.993V470.516H129.384ZM140.018 470.516V458.879H143.95C144.863 458.879 145.609 459.044 146.189 459.374C146.772 459.699 147.204 460.141 147.484 460.697C147.765 461.254 147.905 461.875 147.905 462.561C147.905 463.247 147.765 463.87 147.484 464.43C147.208 464.991 146.78 465.438 146.2 465.771C145.621 466.101 144.878 466.266 143.973 466.266H141.155V465.016H143.928C144.553 465.016 145.054 464.908 145.433 464.692C145.812 464.476 146.087 464.184 146.257 463.817C146.431 463.446 146.518 463.027 146.518 462.561C146.518 462.095 146.431 461.679 146.257 461.311C146.087 460.944 145.81 460.656 145.428 460.447C145.045 460.235 144.537 460.129 143.905 460.129H141.428V470.516H140.018ZM153.558 470.697C152.717 470.697 151.992 470.512 151.382 470.141C150.776 469.766 150.308 469.243 149.979 468.572C149.653 467.898 149.49 467.114 149.49 466.22C149.49 465.326 149.653 464.538 149.979 463.857C150.308 463.171 150.767 462.637 151.354 462.254C151.945 461.868 152.634 461.675 153.422 461.675C153.876 461.675 154.325 461.75 154.768 461.902C155.212 462.054 155.615 462.3 155.979 462.641C156.342 462.978 156.632 463.425 156.848 463.982C157.064 464.538 157.172 465.224 157.172 466.038V466.607H150.445V465.447H155.808C155.808 464.955 155.71 464.516 155.513 464.129C155.32 463.743 155.043 463.438 154.683 463.214C154.327 462.991 153.907 462.879 153.422 462.879C152.888 462.879 152.426 463.012 152.036 463.277C151.649 463.538 151.352 463.879 151.143 464.3C150.935 464.72 150.831 465.171 150.831 465.652V466.425C150.831 467.084 150.945 467.643 151.172 468.101C151.403 468.555 151.723 468.902 152.132 469.141C152.541 469.375 153.017 469.493 153.558 469.493C153.911 469.493 154.229 469.444 154.513 469.345C154.801 469.243 155.049 469.091 155.257 468.891C155.465 468.686 155.626 468.432 155.74 468.129L157.036 468.493C156.899 468.932 156.67 469.319 156.348 469.652C156.026 469.982 155.628 470.239 155.155 470.425C154.681 470.607 154.149 470.697 153.558 470.697ZM159.212 470.516V461.788H160.507V463.107H160.598C160.757 462.675 161.045 462.324 161.462 462.055C161.878 461.786 162.348 461.652 162.871 461.652C162.969 461.652 163.092 461.654 163.24 461.658C163.388 461.661 163.5 461.667 163.575 461.675V463.038C163.53 463.027 163.426 463.01 163.263 462.987C163.104 462.961 162.935 462.947 162.757 462.947C162.333 462.947 161.954 463.036 161.621 463.214C161.291 463.389 161.03 463.631 160.837 463.942C160.647 464.249 160.553 464.599 160.553 464.993V470.516H159.212ZM169.598 461.788V462.925H164.893V461.788H169.598ZM166.303 470.516V460.584C166.303 460.084 166.42 459.667 166.655 459.334C166.89 459 167.195 458.75 167.57 458.584C167.945 458.417 168.34 458.334 168.757 458.334C169.087 458.334 169.356 458.36 169.564 458.413C169.772 458.466 169.928 458.516 170.03 458.561L169.643 459.72C169.575 459.697 169.481 459.669 169.359 459.635C169.242 459.601 169.087 459.584 168.893 459.584C168.45 459.584 168.13 459.696 167.933 459.919C167.74 460.143 167.643 460.47 167.643 460.902V470.516H166.303ZM176.977 466.947V461.788H178.318V470.516H176.977V469.038H176.886C176.682 469.482 176.364 469.858 175.932 470.169C175.5 470.476 174.955 470.629 174.295 470.629C173.75 470.629 173.265 470.51 172.841 470.271C172.417 470.029 172.083 469.665 171.841 469.18C171.598 468.692 171.477 468.076 171.477 467.334V461.788H172.818V467.243C172.818 467.879 172.996 468.387 173.352 468.766C173.712 469.144 174.17 469.334 174.727 469.334C175.061 469.334 175.4 469.249 175.744 469.078C176.093 468.908 176.384 468.646 176.619 468.294C176.858 467.942 176.977 467.493 176.977 466.947ZM180.774 470.516V461.788H182.07V463.152H182.183C182.365 462.686 182.659 462.324 183.064 462.067C183.469 461.805 183.956 461.675 184.524 461.675C185.1 461.675 185.579 461.805 185.962 462.067C186.348 462.324 186.649 462.686 186.865 463.152H186.956C187.179 462.701 187.515 462.343 187.962 462.078C188.409 461.809 188.945 461.675 189.57 461.675C190.35 461.675 190.988 461.919 191.484 462.408C191.981 462.893 192.229 463.648 192.229 464.675V470.516H190.888V464.675C190.888 464.031 190.712 463.571 190.359 463.294C190.007 463.018 189.592 462.879 189.115 462.879C188.501 462.879 188.026 463.065 187.689 463.436C187.352 463.804 187.183 464.269 187.183 464.834V470.516H185.82V464.538C185.82 464.042 185.659 463.643 185.337 463.339C185.015 463.033 184.6 462.879 184.092 462.879C183.744 462.879 183.418 462.972 183.115 463.158C182.816 463.343 182.573 463.601 182.388 463.93C182.206 464.256 182.115 464.633 182.115 465.061V470.516H180.774ZM198.339 470.697C197.499 470.697 196.773 470.512 196.163 470.141C195.557 469.766 195.089 469.243 194.76 468.572C194.434 467.898 194.271 467.114 194.271 466.22C194.271 465.326 194.434 464.538 194.76 463.857C195.089 463.171 195.548 462.637 196.135 462.254C196.726 461.868 197.415 461.675 198.203 461.675C198.658 461.675 199.107 461.75 199.55 461.902C199.993 462.054 200.396 462.3 200.76 462.641C201.124 462.978 201.413 463.425 201.629 463.982C201.845 464.538 201.953 465.224 201.953 466.038V466.607H195.226V465.447H200.589C200.589 464.955 200.491 464.516 200.294 464.129C200.101 463.743 199.824 463.438 199.464 463.214C199.108 462.991 198.688 462.879 198.203 462.879C197.669 462.879 197.207 463.012 196.817 463.277C196.43 463.538 196.133 463.879 195.925 464.3C195.716 464.72 195.612 465.171 195.612 465.652V466.425C195.612 467.084 195.726 467.643 195.953 468.101C196.184 468.555 196.504 468.902 196.913 469.141C197.322 469.375 197.798 469.493 198.339 469.493C198.692 469.493 199.01 469.444 199.294 469.345C199.582 469.243 199.83 469.091 200.038 468.891C200.247 468.686 200.408 468.432 200.521 468.129L201.817 468.493C201.68 468.932 201.451 469.319 201.129 469.652C200.807 469.982 200.41 470.239 199.936 470.425C199.463 470.607 198.93 470.697 198.339 470.697Z" fill="black"/>
<rect width="33.9682" height="33.9682" transform="translate(134 499.354) rotate(-0.597069)" fill="#0A0A0A"/>
<path d="M141.253 516.263L161.067 516.057M161.067 516.057L152.664 524.637M161.067 516.057L152.487 507.654" stroke="white" stroke-width="2.83069" stroke-linecap="round" stroke-linejoin="round"/>
</svg>
